<svg xmlns="http://www.w3.org/2000/svg" xmlns:xlink="http://www.w3.org/1999/xlink" width="800" zoomAndPan="magnify" viewBox="0 0 600 599.999999" height="800" preserveAspectRatio="xMidYMid meet" version="1.0"><defs><clipPath id="554f4f05cd"><path d="M 363 447 L 517 447 L 517 596.914062 L 363 596.914062 Z M 363 447 " clip-rule="nonzero"/></clipPath><clipPath id="54008317a1"><path d="M 369 327 L 597.605469 327 L 597.605469 568.214844 L 369 568.214844 Z M 369 327 " clip-rule="nonzero"/></clipPath><clipPath id="769797a815"><path d="M 453.324219 374 L 597.605469 374 L 597.605469 544.214844 L 453.324219 544.214844 Z M 453.324219 374 " clip-rule="nonzero"/></clipPath><clipPath id="199ce3e46a"><path d="M 375 447 L 529 447 L 529 596.914062 L 375 596.914062 Z M 375 447 " clip-rule="nonzero"/></clipPath><clipPath id="05b978e1d7"><path d="M 11 2.914062 L 205 2.914062 L 205 193 L 11 193 Z M 11 2.914062 " clip-rule="nonzero"/></clipPath><clipPath id="d6722ecb8e"><path d="M 418 442 L 577 442 L 577 596.914062 L 418 596.914062 Z M 418 442 " clip-rule="nonzero"/></clipPath><clipPath id="8fb21301f2"><path d="M 2.167969 20 L 109 20 L 109 137 L 2.167969 137 Z M 2.167969 20 " clip-rule="nonzero"/></clipPath><clipPath id="cd14926ce6"><path d="M 483.324219 384 L 597.605469 384 L 597.605469 532 L 483.324219 532 Z M 483.324219 384 " clip-rule="nonzero"/></clipPath><clipPath id="019b00529e"><path d="M 381.320312 375.214844 L 597.605469 375.214844 L 597.605469 596.914062 L 381.320312 596.914062 Z M 381.320312 375.214844 " clip-rule="nonzero"/></clipPath><clipPath id="bf7dffd909"><path d="M 2.167969 2.914062 L 93 2.914062 L 93 108 L 2.167969 108 Z M 2.167969 2.914062 " clip-rule="nonzero"/></clipPath><clipPath id="1ea7d530cc"><path d="M 19 2.914062 L 153 2.914062 L 153 133 L 19 133 Z M 19 2.914062 " clip-rule="nonzero"/></clipPath><clipPath id="8ac26f0a50"><path d="M 2.167969 53 L 228 53 L 228 291 L 2.167969 291 Z M 2.167969 53 " clip-rule="nonzero"/></clipPath><clipPath id="131aa3d41b"><path d="M 125 2.914062 L 419 2.914062 L 419 296 L 125 296 Z M 125 2.914062 " clip-rule="nonzero"/></clipPath><clipPath id="58b9a21343"><path d="M 306.320312 125.214844 L 597.605469 125.214844 L 597.605469 417 L 306.320312 417 Z M 306.320312 125.214844 " clip-rule="nonzero"/></clipPath><clipPath id="316af98c69"><path d="M 2.167969 96 L 296 96 L 296 390 L 2.167969 390 Z M 2.167969 96 " clip-rule="nonzero"/></clipPath><clipPath id="003f52a716"><path d="M 395.320312 252.214844 L 597.605469 252.214844 L 597.605469 456 L 395.320312 456 Z M 395.320312 252.214844 " clip-rule="nonzero"/></clipPath><clipPath id="165ae0f797"><path d="M 379.320312 2.914062 L 597.605469 2.914062 L 597.605469 221 L 379.320312 221 Z M 379.320312 2.914062 " clip-rule="nonzero"/></clipPath><clipPath id="69855770a2"><path d="M 278 2.914062 L 388 2.914062 L 388 112 L 278 112 Z M 278 2.914062 " clip-rule="nonzero"/></clipPath><clipPath id="a72072ac64"><path d="M 154 490 L 262 490 L 262 596.914062 L 154 596.914062 Z M 154 490 " clip-rule="nonzero"/></clipPath><clipPath id="f8a23fc0c1"><path d="M 2.167969 295 L 111 295 L 111 404 L 2.167969 404 Z M 2.167969 295 " clip-rule="nonzero"/></clipPath></defs><g clip-path="url(#554f4f05cd)"><path fill="#e5a91e" d="M 516.457031 596.839844 L 368.777344 447.863281 L 363.210938 472.511719 L 486.460938 596.839844 L 516.457031 596.839844 " fill-opacity="1" fill-rule="nonzero"/></g><path fill="#e5a91e" d="M 339.636719 291.234375 L 336.675781 304.347656 L 331.34375 298.746094 L 334.304688 285.628906 L 339.636719 291.234375 " fill-opacity="1" fill-rule="nonzero"/><path fill="#1d7274" d="M 121.582031 247.136719 L 116.957031 267.621094 L 24.269531 174.9375 L 28.898438 154.453125 L 121.582031 247.136719 " fill-opacity="1" fill-rule="nonzero"/><path fill="#1d7274" d="M 134.539062 261.753906 L 129.914062 282.242188 L 121.582031 273.488281 L 126.210938 253 L 134.539062 261.753906 " fill-opacity="1" fill-rule="nonzero"/><path fill="#ba331d" d="M 272.511719 329.195312 L 269.175781 343.972656 L 263.167969 337.660156 L 266.503906 322.882812 L 272.511719 329.195312 " fill-opacity="1" fill-rule="nonzero"/><path fill="#fbd41e" d="M 343.78125 291.234375 L 340.820312 304.347656 L 335.488281 298.746094 L 338.449219 285.628906 L 343.78125 291.234375 " fill-opacity="1" fill-rule="nonzero"/><path fill="#ba331d" d="M 261.363281 320.8125 L 258.515625 333.429688 L 24.269531 99.261719 L 27.117188 86.648438 L 261.363281 320.8125 " fill-opacity="1" fill-rule="nonzero"/><path fill="#e5a91e" d="M 232.484375 249.867188 L 229.636719 262.480469 L 126.1875 159.371094 L 129.035156 146.757812 L 232.484375 249.867188 " fill-opacity="1" fill-rule="nonzero"/><g clip-path="url(#54008317a1)"><path fill="#e5a91e" d="M 597.699219 552.714844 L 372.050781 327.140625 L 369.203125 339.753906 L 597.699219 568.175781 L 597.699219 552.714844 " fill-opacity="1" fill-rule="nonzero"/></g><g clip-path="url(#769797a815)"><path fill="#1d7274" d="M 597.699219 513.933594 L 459.042969 374.058594 L 453.476562 398.707031 L 597.699219 544.195312 L 597.699219 513.933594 " fill-opacity="1" fill-rule="nonzero"/></g><g clip-path="url(#199ce3e46a)"><path fill="#fbd41e" d="M 528.753906 596.839844 L 381.070312 447.863281 L 375.507812 472.511719 L 498.753906 596.839844 L 528.753906 596.839844 " fill-opacity="1" fill-rule="nonzero"/></g><g clip-path="url(#05b978e1d7)"><path fill="#ba331d" d="M 11.003906 2.871094 L 201.722656 192.960938 L 204.574219 180.347656 L 26.507812 2.871094 L 11.003906 2.871094 " fill-opacity="1" fill-rule="nonzero"/></g><g clip-path="url(#d6722ecb8e)"><path fill="#ba331d" d="M 576.757812 596.839844 L 421.574219 442.164062 L 418.726562 454.78125 L 561.253906 596.839844 L 576.757812 596.839844 " fill-opacity="1" fill-rule="nonzero"/></g><g clip-path="url(#8fb21301f2)"><path fill="#1d7274" d="M 108.675781 123.460938 L 105.824219 136.078125 L 2.375 32.96875 L 5.222656 20.351562 L 108.675781 123.460938 " fill-opacity="1" fill-rule="nonzero"/></g><g clip-path="url(#cd14926ce6)"><path fill="#328784" d="M 597.699219 490.960938 L 490.792969 384.054688 L 483.367188 416.933594 L 597.699219 531.265625 L 597.699219 490.960938 " fill-opacity="1" fill-rule="nonzero"/></g><path fill="#328784" d="M 104.179688 217.625 L 99.554688 238.109375 L 6.867188 145.429688 L 11.492188 124.941406 L 104.179688 217.625 " fill-opacity="1" fill-rule="nonzero"/><g clip-path="url(#019b00529e)"><path fill="#da4420" d="M 597.699219 596.839844 L 597.699219 586.605469 L 388.789062 375.863281 L 381.363281 408.742188 L 567.828125 596.839844 L 597.699219 596.839844 " fill-opacity="1" fill-rule="nonzero"/></g><g clip-path="url(#bf7dffd909)"><path fill="#328784" d="M 2.21875 2.871094 L 2.21875 24.621094 L 85.214844 107.613281 L 92.636719 74.734375 L 20.769531 2.871094 L 2.21875 2.871094 " fill-opacity="1" fill-rule="nonzero"/></g><g clip-path="url(#1ea7d530cc)"><path fill="#da4420" d="M 19.941406 2.871094 L 149.707031 132.207031 L 152.554688 119.59375 L 35.445312 2.871094 L 19.941406 2.871094 " fill-opacity="1" fill-rule="nonzero"/></g><path fill="#fbd41e" d="M 241.082031 249.867188 L 238.230469 262.480469 L 134.777344 159.371094 L 137.628906 146.757812 L 241.082031 249.867188 " fill-opacity="1" fill-rule="nonzero"/><path fill="#fbd41e" d="M 582.292969 527.839844 L 579.441406 540.457031 L 345.203125 306.289062 L 348.050781 293.675781 L 582.292969 527.839844 " fill-opacity="1" fill-rule="nonzero"/><g clip-path="url(#8ac26f0a50)"><path fill="#da4420" d="M 2.21875 53.152344 L 2.21875 68.617188 L 224.367188 290.695312 L 227.214844 278.082031 L 2.21875 53.152344 " fill-opacity="1" fill-rule="nonzero"/></g><g clip-path="url(#131aa3d41b)"><path fill="#d3d2d2" d="M 418.398438 295.941406 L 125.921875 3.46875 L 126.453125 2.9375 L 418.929688 295.410156 L 418.398438 295.941406 " fill-opacity="1" fill-rule="nonzero"/></g><g clip-path="url(#58b9a21343)"><path fill="#d3d2d2" d="M 597.699219 415.679688 L 307.503906 125.488281 L 306.972656 126.019531 L 597.699219 416.742188 L 597.699219 415.679688 " fill-opacity="1" fill-rule="nonzero"/></g><g clip-path="url(#316af98c69)"><path fill="#d3d2d2" d="M 2.640625 96.34375 L 2.21875 96.761719 L 2.21875 96.980469 L 294.585938 389.34375 L 295.117188 388.8125 L 2.640625 96.34375 " fill-opacity="1" fill-rule="nonzero"/></g><g clip-path="url(#003f52a716)"><path fill="#d3d2d2" d="M 597.699219 454.199219 L 396.234375 252.738281 L 395.703125 253.265625 L 597.699219 455.261719 L 597.699219 454.199219 " fill-opacity="1" fill-rule="nonzero"/></g><g clip-path="url(#165ae0f797)"><path fill="#d3d2d2" d="M 379.578125 2.871094 L 597.699219 220.984375 L 597.699219 219.925781 L 380.640625 2.871094 L 379.578125 2.871094 " fill-opacity="1" fill-rule="nonzero"/></g><g clip-path="url(#69855770a2)"><path fill="#d3d2d2" d="M 278.542969 2.871094 L 278.277344 3.136719 L 387.050781 111.910156 L 387.582031 111.378906 L 279.074219 2.871094 L 278.542969 2.871094 " fill-opacity="1" fill-rule="nonzero"/></g><g clip-path="url(#a72072ac64)"><path fill="#d3d2d2" d="M 261.402344 596.839844 L 154.65625 490.097656 L 154.125 490.628906 L 260.339844 596.839844 L 261.402344 596.839844 " fill-opacity="1" fill-rule="nonzero"/></g><path fill="#d3d2d2" d="M 196.9375 545.015625 L 88.164062 436.242188 L 88.695312 435.710938 L 197.46875 544.484375 L 196.9375 545.015625 " fill-opacity="1" fill-rule="nonzero"/><g clip-path="url(#f8a23fc0c1)"><path fill="#d3d2d2" d="M 2.21875 295.082031 L 2.21875 296.144531 L 109.648438 403.570312 L 110.179688 403.039062 L 2.21875 295.082031 " fill-opacity="1" fill-rule="nonzero"/></g><path fill="#328784" d="M 253.214844 220.3125 L 263.167969 203.074219 L 273.121094 220.3125 Z M 253.214844 220.3125 " fill-opacity="1" fill-rule="nonzero"/><path fill="#fbd41e" d="M 322.976562 538.148438 L 332.929688 520.910156 L 342.882812 538.148438 Z M 322.976562 538.148438 " fill-opacity="1" fill-rule="nonzero"/><path fill="#da4420" d="M 345.203125 362.410156 L 355.15625 345.171875 L 365.109375 362.410156 Z M 345.203125 362.410156 " fill-opacity="1" fill-rule="nonzero"/><path fill="#da4420" d="M 122.367188 49.171875 L 114.746094 30.785156 L 134.480469 33.375 Z M 122.367188 49.171875 " fill-opacity="1" fill-rule="nonzero"/><path fill="#fbd41e" d="M 138.402344 64.457031 L 127.941406 39.226562 L 155.019531 42.785156 Z M 138.402344 64.457031 " fill-opacity="1" fill-rule="nonzero"/><path fill="#fbd41e" d="M 72.285156 298.570312 L 91.46875 279.128906 L 98.714844 305.460938 Z M 72.285156 298.570312 " fill-opacity="1" fill-rule="nonzero"/><path fill="#fbd41e" d="M 348.453125 381.082031 L 358.183594 371.222656 L 361.859375 384.578125 Z M 348.453125 381.082031 " fill-opacity="1" fill-rule="nonzero"/><path fill="#da4420" d="M 108.042969 212.21875 L 117.769531 202.359375 L 121.445312 215.714844 Z M 108.042969 212.21875 " fill-opacity="1" fill-rule="nonzero"/><path fill="#da4420" d="M 336.179688 493.609375 L 345.910156 483.75 L 349.585938 497.105469 Z M 336.179688 493.609375 " fill-opacity="1" fill-rule="nonzero"/><path fill="#da4420" d="M 128.078125 307.53125 L 137.804688 297.671875 L 141.480469 311.027344 Z M 128.078125 307.53125 " fill-opacity="1" fill-rule="nonzero"/><path fill="#328784" d="M 316.273438 347.15625 L 326.003906 337.292969 L 329.679688 350.648438 Z M 316.273438 347.15625 " fill-opacity="1" fill-rule="nonzero"/><path fill="#328784" d="M 141.703125 71.851562 L 137.914062 62.71875 L 147.71875 64.003906 Z M 141.703125 71.851562 " fill-opacity="1" fill-rule="nonzero"/></svg>