<svg xmlns="http://www.w3.org/2000/svg" xmlns:xlink="http://www.w3.org/1999/xlink" width="500" zoomAndPan="magnify" viewBox="0 0 375 165.000002" height="220" preserveAspectRatio="xMidYMid meet" version="1.0"><defs><g/><clipPath id="d927e4573f"><path d="M 125 2.238281 L 250 2.238281 L 250 64.113281 L 125 64.113281 Z M 125 2.238281 " clip-rule="nonzero"/></clipPath><clipPath id="bbf1044243"><path d="M 178 56 L 187 56 L 187 64.113281 L 178 64.113281 Z M 178 56 " clip-rule="nonzero"/></clipPath><clipPath id="53e1973814"><path d="M 189 56 L 197 56 L 197 64.113281 L 189 64.113281 Z M 189 56 " clip-rule="nonzero"/></clipPath><clipPath id="cb6fc8dfb2"><path d="M 16.554688 27 L 145 27 L 145 64.113281 L 16.554688 64.113281 Z M 16.554688 27 " clip-rule="nonzero"/></clipPath><clipPath id="116657da6f"><path d="M 230 27 L 358.730469 27 L 358.730469 64.113281 L 230 64.113281 Z M 230 27 " clip-rule="nonzero"/></clipPath></defs><g fill="#01bf61" fill-opacity="1"><g transform="translate(6.838342, 159.711063)"><g><path d="M 6.21875 -10.234375 L 7.484375 -10.234375 C 8.710938 -10.234375 9.617188 -10.4375 10.203125 -10.84375 C 10.796875 -11.257812 11.09375 -11.910156 11.09375 -12.796875 C 11.09375 -13.671875 10.789062 -14.289062 10.1875 -14.65625 C 9.59375 -15.03125 8.664062 -15.21875 7.40625 -15.21875 L 6.21875 -15.21875 Z M 6.21875 -7.0625 L 6.21875 0 L 2.3125 0 L 2.3125 -18.421875 L 7.6875 -18.421875 C 10.1875 -18.421875 12.035156 -17.960938 13.234375 -17.046875 C 14.441406 -16.140625 15.046875 -14.757812 15.046875 -12.90625 C 15.046875 -11.820312 14.742188 -10.851562 14.140625 -10 C 13.546875 -9.15625 12.703125 -8.5 11.609375 -8.03125 C 14.378906 -3.882812 16.1875 -1.207031 17.03125 0 L 12.703125 0 L 8.296875 -7.0625 Z M 6.21875 -7.0625 "/></g></g></g><g fill="#01bf61" fill-opacity="1"><g transform="translate(27.251237, 159.711063)"><g><path d="M 19.03125 -9.234375 C 19.03125 -6.179688 18.273438 -3.835938 16.765625 -2.203125 C 15.253906 -0.566406 13.085938 0.25 10.265625 0.25 C 7.441406 0.25 5.273438 -0.566406 3.765625 -2.203125 C 2.253906 -3.835938 1.5 -6.191406 1.5 -9.265625 C 1.5 -12.328125 2.253906 -14.664062 3.765625 -16.28125 C 5.285156 -17.894531 7.460938 -18.703125 10.296875 -18.703125 C 13.117188 -18.703125 15.28125 -17.882812 16.78125 -16.25 C 18.28125 -14.625 19.03125 -12.285156 19.03125 -9.234375 Z M 5.59375 -9.234375 C 5.59375 -7.171875 5.984375 -5.617188 6.765625 -4.578125 C 7.546875 -3.535156 8.710938 -3.015625 10.265625 -3.015625 C 13.378906 -3.015625 14.9375 -5.085938 14.9375 -9.234375 C 14.9375 -13.378906 13.390625 -15.453125 10.296875 -15.453125 C 8.734375 -15.453125 7.554688 -14.925781 6.765625 -13.875 C 5.984375 -12.832031 5.59375 -11.285156 5.59375 -9.234375 Z M 5.59375 -9.234375 "/></g></g></g><g fill="#01bf61" fill-opacity="1"><g transform="translate(51.166372, 159.711063)"><g><path d="M 19.03125 -9.234375 C 19.03125 -6.179688 18.273438 -3.835938 16.765625 -2.203125 C 15.253906 -0.566406 13.085938 0.25 10.265625 0.25 C 7.441406 0.25 5.273438 -0.566406 3.765625 -2.203125 C 2.253906 -3.835938 1.5 -6.191406 1.5 -9.265625 C 1.5 -12.328125 2.253906 -14.664062 3.765625 -16.28125 C 5.285156 -17.894531 7.460938 -18.703125 10.296875 -18.703125 C 13.117188 -18.703125 15.28125 -17.882812 16.78125 -16.25 C 18.28125 -14.625 19.03125 -12.285156 19.03125 -9.234375 Z M 5.59375 -9.234375 C 5.59375 -7.171875 5.984375 -5.617188 6.765625 -4.578125 C 7.546875 -3.535156 8.710938 -3.015625 10.265625 -3.015625 C 13.378906 -3.015625 14.9375 -5.085938 14.9375 -9.234375 C 14.9375 -13.378906 13.390625 -15.453125 10.296875 -15.453125 C 8.734375 -15.453125 7.554688 -14.925781 6.765625 -13.875 C 5.984375 -12.832031 5.59375 -11.285156 5.59375 -9.234375 Z M 5.59375 -9.234375 "/></g></g></g><g fill="#01bf61" fill-opacity="1"><g transform="translate(75.081507, 159.711063)"><g><path d="M 6.15625 0 L 2.3125 0 L 2.3125 -18.421875 L 12.875 -18.421875 L 12.875 -15.21875 L 6.15625 -15.21875 L 6.15625 -10.46875 L 12.40625 -10.46875 L 12.40625 -7.28125 L 6.15625 -7.28125 Z M 6.15625 0 "/></g></g></g><g fill="#01bf61" fill-opacity="1"><g transform="translate(92.622064, 159.711063)"><g><path d="M 2.3125 0 L 2.3125 -18.421875 L 6.21875 -18.421875 L 6.21875 0 Z M 2.3125 0 "/></g></g></g><g fill="#01bf61" fill-opacity="1"><g transform="translate(104.543916, 159.711063)"><g><path d="M 18.65625 0 L 13.6875 0 L 5.6875 -13.9375 L 5.5625 -13.9375 C 5.726562 -11.46875 5.8125 -9.710938 5.8125 -8.671875 L 5.8125 0 L 2.3125 0 L 2.3125 -18.421875 L 7.25 -18.421875 L 15.234375 -4.625 L 15.328125 -4.625 C 15.203125 -7.019531 15.140625 -8.710938 15.140625 -9.703125 L 15.140625 -18.421875 L 18.65625 -18.421875 Z M 18.65625 0 "/></g></g></g><g fill="#01bf61" fill-opacity="1"><g transform="translate(128.899992, 159.711063)"><g><path d="M 9.3125 -10.34375 L 16.609375 -10.34375 L 16.609375 -0.796875 C 15.429688 -0.410156 14.316406 -0.140625 13.265625 0.015625 C 12.222656 0.171875 11.15625 0.25 10.0625 0.25 C 7.28125 0.25 5.15625 -0.5625 3.6875 -2.1875 C 2.226562 -3.820312 1.5 -6.171875 1.5 -9.234375 C 1.5 -12.203125 2.347656 -14.519531 4.046875 -16.1875 C 5.742188 -17.851562 8.101562 -18.6875 11.125 -18.6875 C 13.007812 -18.6875 14.832031 -18.304688 16.59375 -17.546875 L 15.296875 -14.421875 C 13.953125 -15.097656 12.550781 -15.4375 11.09375 -15.4375 C 9.40625 -15.4375 8.050781 -14.867188 7.03125 -13.734375 C 6.019531 -12.597656 5.515625 -11.070312 5.515625 -9.15625 C 5.515625 -7.15625 5.921875 -5.628906 6.734375 -4.578125 C 7.554688 -3.523438 8.75 -3 10.3125 -3 C 11.125 -3 11.953125 -3.082031 12.796875 -3.25 L 12.796875 -7.09375 L 9.3125 -7.09375 Z M 9.3125 -10.34375 "/></g></g></g><g fill="#01bf61" fill-opacity="1"><g transform="translate(150.963224, 159.711063)"><g/></g></g><g fill="#01bf61" fill-opacity="1"><g transform="translate(161.045771, 159.711063)"><g><path d="M 10.140625 -15.4375 C 8.671875 -15.4375 7.53125 -14.882812 6.71875 -13.78125 C 5.914062 -12.675781 5.515625 -11.132812 5.515625 -9.15625 C 5.515625 -5.050781 7.054688 -3 10.140625 -3 C 11.429688 -3 13 -3.320312 14.84375 -3.96875 L 14.84375 -0.6875 C 13.332031 -0.0625 11.644531 0.25 9.78125 0.25 C 7.09375 0.25 5.039062 -0.5625 3.625 -2.1875 C 2.207031 -3.8125 1.5 -6.144531 1.5 -9.1875 C 1.5 -11.09375 1.847656 -12.765625 2.546875 -14.203125 C 3.242188 -15.648438 4.242188 -16.757812 5.546875 -17.53125 C 6.847656 -18.300781 8.378906 -18.6875 10.140625 -18.6875 C 11.929688 -18.6875 13.726562 -18.25 15.53125 -17.375 L 14.265625 -14.203125 C 13.578125 -14.535156 12.882812 -14.820312 12.1875 -15.0625 C 11.488281 -15.3125 10.804688 -15.4375 10.140625 -15.4375 Z M 10.140625 -15.4375 "/></g></g></g><g fill="#01bf61" fill-opacity="1"><g transform="translate(180.866563, 159.711063)"><g><path d="M 19.03125 -9.234375 C 19.03125 -6.179688 18.273438 -3.835938 16.765625 -2.203125 C 15.253906 -0.566406 13.085938 0.25 10.265625 0.25 C 7.441406 0.25 5.273438 -0.566406 3.765625 -2.203125 C 2.253906 -3.835938 1.5 -6.191406 1.5 -9.265625 C 1.5 -12.328125 2.253906 -14.664062 3.765625 -16.28125 C 5.285156 -17.894531 7.460938 -18.703125 10.296875 -18.703125 C 13.117188 -18.703125 15.28125 -17.882812 16.78125 -16.25 C 18.28125 -14.625 19.03125 -12.285156 19.03125 -9.234375 Z M 5.59375 -9.234375 C 5.59375 -7.171875 5.984375 -5.617188 6.765625 -4.578125 C 7.546875 -3.535156 8.710938 -3.015625 10.265625 -3.015625 C 13.378906 -3.015625 14.9375 -5.085938 14.9375 -9.234375 C 14.9375 -13.378906 13.390625 -15.453125 10.296875 -15.453125 C 8.734375 -15.453125 7.554688 -14.925781 6.765625 -13.875 C 5.984375 -12.832031 5.59375 -11.285156 5.59375 -9.234375 Z M 5.59375 -9.234375 "/></g></g></g><g fill="#01bf61" fill-opacity="1"><g transform="translate(204.781691, 159.711063)"><g><path d="M 18.65625 0 L 13.6875 0 L 5.6875 -13.9375 L 5.5625 -13.9375 C 5.726562 -11.46875 5.8125 -9.710938 5.8125 -8.671875 L 5.8125 0 L 2.3125 0 L 2.3125 -18.421875 L 7.25 -18.421875 L 15.234375 -4.625 L 15.328125 -4.625 C 15.203125 -7.019531 15.140625 -8.710938 15.140625 -9.703125 L 15.140625 -18.421875 L 18.65625 -18.421875 Z M 18.65625 0 "/></g></g></g><g fill="#01bf61" fill-opacity="1"><g transform="translate(229.137756, 159.711063)"><g><path d="M 9.421875 0 L 5.515625 0 L 5.515625 -15.171875 L 0.515625 -15.171875 L 0.515625 -18.421875 L 14.421875 -18.421875 L 14.421875 -15.171875 L 9.421875 -15.171875 Z M 9.421875 0 "/></g></g></g><g fill="#01bf61" fill-opacity="1"><g transform="translate(247.459393, 159.711063)"><g><path d="M 6.21875 -10.234375 L 7.484375 -10.234375 C 8.710938 -10.234375 9.617188 -10.4375 10.203125 -10.84375 C 10.796875 -11.257812 11.09375 -11.910156 11.09375 -12.796875 C 11.09375 -13.671875 10.789062 -14.289062 10.1875 -14.65625 C 9.59375 -15.03125 8.664062 -15.21875 7.40625 -15.21875 L 6.21875 -15.21875 Z M 6.21875 -7.0625 L 6.21875 0 L 2.3125 0 L 2.3125 -18.421875 L 7.6875 -18.421875 C 10.1875 -18.421875 12.035156 -17.960938 13.234375 -17.046875 C 14.441406 -16.140625 15.046875 -14.757812 15.046875 -12.90625 C 15.046875 -11.820312 14.742188 -10.851562 14.140625 -10 C 13.546875 -9.15625 12.703125 -8.5 11.609375 -8.03125 C 14.378906 -3.882812 16.1875 -1.207031 17.03125 0 L 12.703125 0 L 8.296875 -7.0625 Z M 6.21875 -7.0625 "/></g></g></g><g fill="#01bf61" fill-opacity="1"><g transform="translate(267.872284, 159.711063)"><g><path d="M 13.59375 0 L 12.25 -4.390625 L 5.546875 -4.390625 L 4.203125 0 L 0 0 L 6.5 -18.484375 L 11.28125 -18.484375 L 17.796875 0 Z M 11.328125 -7.65625 C 10.085938 -11.625 9.390625 -13.867188 9.234375 -14.390625 C 9.078125 -14.910156 8.96875 -15.320312 8.90625 -15.625 C 8.625 -14.550781 7.832031 -11.894531 6.53125 -7.65625 Z M 11.328125 -7.65625 "/></g></g></g><g fill="#01bf61" fill-opacity="1"><g transform="translate(289.053656, 159.711063)"><g><path d="M 10.140625 -15.4375 C 8.671875 -15.4375 7.53125 -14.882812 6.71875 -13.78125 C 5.914062 -12.675781 5.515625 -11.132812 5.515625 -9.15625 C 5.515625 -5.050781 7.054688 -3 10.140625 -3 C 11.429688 -3 13 -3.320312 14.84375 -3.96875 L 14.84375 -0.6875 C 13.332031 -0.0625 11.644531 0.25 9.78125 0.25 C 7.09375 0.25 5.039062 -0.5625 3.625 -2.1875 C 2.207031 -3.8125 1.5 -6.144531 1.5 -9.1875 C 1.5 -11.09375 1.847656 -12.765625 2.546875 -14.203125 C 3.242188 -15.648438 4.242188 -16.757812 5.546875 -17.53125 C 6.847656 -18.300781 8.378906 -18.6875 10.140625 -18.6875 C 11.929688 -18.6875 13.726562 -18.25 15.53125 -17.375 L 14.265625 -14.203125 C 13.578125 -14.535156 12.882812 -14.820312 12.1875 -15.0625 C 11.488281 -15.3125 10.804688 -15.4375 10.140625 -15.4375 Z M 10.140625 -15.4375 "/></g></g></g><g fill="#01bf61" fill-opacity="1"><g transform="translate(308.874448, 159.711063)"><g><path d="M 9.421875 0 L 5.515625 0 L 5.515625 -15.171875 L 0.515625 -15.171875 L 0.515625 -18.421875 L 14.421875 -18.421875 L 14.421875 -15.171875 L 9.421875 -15.171875 Z M 9.421875 0 "/></g></g></g><g fill="#01bf61" fill-opacity="1"><g transform="translate(327.196085, 159.711063)"><g><path d="M 19.03125 -9.234375 C 19.03125 -6.179688 18.273438 -3.835938 16.765625 -2.203125 C 15.253906 -0.566406 13.085938 0.25 10.265625 0.25 C 7.441406 0.25 5.273438 -0.566406 3.765625 -2.203125 C 2.253906 -3.835938 1.5 -6.191406 1.5 -9.265625 C 1.5 -12.328125 2.253906 -14.664062 3.765625 -16.28125 C 5.285156 -17.894531 7.460938 -18.703125 10.296875 -18.703125 C 13.117188 -18.703125 15.28125 -17.882812 16.78125 -16.25 C 18.28125 -14.625 19.03125 -12.285156 19.03125 -9.234375 Z M 5.59375 -9.234375 C 5.59375 -7.171875 5.984375 -5.617188 6.765625 -4.578125 C 7.546875 -3.535156 8.710938 -3.015625 10.265625 -3.015625 C 13.378906 -3.015625 14.9375 -5.085938 14.9375 -9.234375 C 14.9375 -13.378906 13.390625 -15.453125 10.296875 -15.453125 C 8.734375 -15.453125 7.554688 -14.925781 6.765625 -13.875 C 5.984375 -12.832031 5.59375 -11.285156 5.59375 -9.234375 Z M 5.59375 -9.234375 "/></g></g></g><g fill="#01bf61" fill-opacity="1"><g transform="translate(351.111226, 159.711063)"><g><path d="M 6.21875 -10.234375 L 7.484375 -10.234375 C 8.710938 -10.234375 9.617188 -10.4375 10.203125 -10.84375 C 10.796875 -11.257812 11.09375 -11.910156 11.09375 -12.796875 C 11.09375 -13.671875 10.789062 -14.289062 10.1875 -14.65625 C 9.59375 -15.03125 8.664062 -15.21875 7.40625 -15.21875 L 6.21875 -15.21875 Z M 6.21875 -7.0625 L 6.21875 0 L 2.3125 0 L 2.3125 -18.421875 L 7.6875 -18.421875 C 10.1875 -18.421875 12.035156 -17.960938 13.234375 -17.046875 C 14.441406 -16.140625 15.046875 -14.757812 15.046875 -12.90625 C 15.046875 -11.820312 14.742188 -10.851562 14.140625 -10 C 13.546875 -9.15625 12.703125 -8.5 11.609375 -8.03125 C 14.378906 -3.882812 16.1875 -1.207031 17.03125 0 L 12.703125 0 L 8.296875 -7.0625 Z M 6.21875 -7.0625 "/></g></g></g><g fill="#ffffff" fill-opacity="1"><g transform="translate(23.695388, 127.584476)"><g><path d="M 35.765625 0 L 33.328125 -9.296875 L 17.21875 -9.296875 L 14.71875 0 L 0 0 L 16.171875 -49.765625 L 34.046875 -49.765625 L 50.421875 0 Z M 30.546875 -20.28125 L 28.40625 -28.40625 C 27.914062 -30.21875 27.3125 -32.554688 26.59375 -35.421875 C 25.882812 -38.296875 25.414062 -40.351562 25.1875 -41.59375 C 24.988281 -40.445312 24.585938 -38.550781 23.984375 -35.90625 C 23.390625 -33.257812 22.0625 -28.050781 20 -20.28125 Z M 30.546875 -20.28125 "/></g></g></g><g fill="#ffffff" fill-opacity="1"><g transform="translate(74.102633, 127.584476)"><g><path d="M 18.75 -18.03125 L 18.75 0 L 5.359375 0 L 5.359375 -49.5625 L 21.59375 -49.5625 C 35.070312 -49.5625 41.8125 -44.679688 41.8125 -34.921875 C 41.8125 -29.179688 39.003906 -24.738281 33.390625 -21.59375 L 47.84375 0 L 32.65625 0 L 22.140625 -18.03125 Z M 18.75 -28.109375 L 21.265625 -28.109375 C 25.941406 -28.109375 28.28125 -30.175781 28.28125 -34.3125 C 28.28125 -37.726562 25.984375 -39.4375 21.390625 -39.4375 L 18.75 -39.4375 Z M 18.75 -28.109375 "/></g></g></g><g fill="#ffffff" fill-opacity="1"><g transform="translate(121.086108, 127.584476)"><g><path d="M 5.359375 0 L 5.359375 -49.5625 L 18.8125 -49.5625 L 18.8125 0 Z M 5.359375 0 "/></g></g></g><g fill="#ffffff" fill-opacity="1"><g transform="translate(145.255828, 127.584476)"><g><path d="M 40.6875 0 L 2.0625 0 L 2.0625 -8.265625 L 23.53125 -38.75 L 2.578125 -38.75 L 2.578125 -49.5625 L 40.140625 -49.5625 L 40.140625 -41.328125 L 18.6875 -10.8125 L 40.6875 -10.8125 Z M 40.6875 0 "/></g></g></g><g fill="#ffffff" fill-opacity="1"><g transform="translate(187.663, 127.584476)"><g><path d="M 51.734375 -24.859375 C 51.734375 -16.515625 49.6875 -10.171875 45.59375 -5.828125 C 41.507812 -1.492188 35.519531 0.671875 27.625 0.671875 C 19.851562 0.671875 13.894531 -1.503906 9.75 -5.859375 C 5.601562 -10.222656 3.53125 -16.578125 3.53125 -24.921875 C 3.53125 -33.171875 5.59375 -39.46875 9.71875 -43.8125 C 13.84375 -48.164062 19.835938 -50.34375 27.703125 -50.34375 C 35.585938 -50.34375 41.5625 -48.179688 45.625 -43.859375 C 49.695312 -39.546875 51.734375 -33.210938 51.734375 -24.859375 Z M 17.625 -24.859375 C 17.625 -15.273438 20.957031 -10.484375 27.625 -10.484375 C 31.019531 -10.484375 33.535156 -11.644531 35.171875 -13.96875 C 36.816406 -16.300781 37.640625 -19.929688 37.640625 -24.859375 C 37.640625 -29.804688 36.804688 -33.457031 35.140625 -35.8125 C 33.484375 -38.175781 31.003906 -39.359375 27.703125 -39.359375 C 20.984375 -39.359375 17.625 -34.523438 17.625 -24.859375 Z M 17.625 -24.859375 "/></g></g></g><g fill="#ffffff" fill-opacity="1"><g transform="translate(242.985533, 127.584476)"><g><path d="M 52.546875 0 L 34.984375 0 L 16.890625 -34.921875 L 16.578125 -34.921875 C 17.003906 -29.429688 17.21875 -25.238281 17.21875 -22.34375 L 17.21875 0 L 5.359375 0 L 5.359375 -49.5625 L 22.859375 -49.5625 L 40.890625 -15.125 L 41.09375 -15.125 C 40.78125 -20.113281 40.625 -24.125 40.625 -27.15625 L 40.625 -49.5625 L 52.546875 -49.5625 Z M 52.546875 0 "/></g></g></g><g fill="#ffffff" fill-opacity="1"><g transform="translate(300.88436, 127.584476)"><g><path d="M 35.765625 0 L 33.328125 -9.296875 L 17.21875 -9.296875 L 14.71875 0 L 0 0 L 16.171875 -49.765625 L 34.046875 -49.765625 L 50.421875 0 Z M 30.546875 -20.28125 L 28.40625 -28.40625 C 27.914062 -30.21875 27.3125 -32.554688 26.59375 -35.421875 C 25.882812 -38.296875 25.414062 -40.351562 25.1875 -41.59375 C 24.988281 -40.445312 24.585938 -38.550781 23.984375 -35.90625 C 23.390625 -33.257812 22.0625 -28.050781 20 -20.28125 Z M 30.546875 -20.28125 "/></g></g></g><g clip-path="url(#d927e4573f)"><path fill="#01bf61" d="M 187.664062 2.242188 L 213.191406 27.71875 L 214.898438 33.15625 L 214.898438 21.175781 L 223.164062 21.320312 L 223.164062 41.289062 L 224.070312 38.574219 L 249.621094 64.066406 L 233.070312 64.066406 L 187.664062 18.757812 L 142.253906 64.066406 L 125.703125 64.066406 L 187.664062 2.242188 " fill-opacity="1" fill-rule="nonzero"/></g><g clip-path="url(#bbf1044243)"><path fill="#01bf61" d="M 186.113281 64.066406 L 178.789062 64.066406 L 178.789062 56.761719 L 186.113281 56.761719 L 186.113281 64.066406 " fill-opacity="1" fill-rule="nonzero"/></g><g clip-path="url(#53e1973814)"><path fill="#01bf61" d="M 196.535156 64.066406 L 189.210938 64.066406 L 189.210938 56.761719 L 196.535156 56.761719 L 196.535156 64.066406 " fill-opacity="1" fill-rule="nonzero"/></g><path fill="#01bf61" d="M 186.113281 54.511719 L 178.789062 54.511719 L 178.789062 47.203125 L 186.113281 47.203125 L 186.113281 54.511719 " fill-opacity="1" fill-rule="nonzero"/><path fill="#01bf61" d="M 196.535156 54.511719 L 189.210938 54.511719 L 189.210938 47.203125 L 196.535156 47.203125 L 196.535156 54.511719 " fill-opacity="1" fill-rule="nonzero"/><path fill="#ffffff" d="M 187.664062 29.890625 L 214.585938 50.023438 L 187.664062 23.15625 L 160.738281 50.023438 L 187.664062 29.890625 " fill-opacity="1" fill-rule="nonzero"/><g clip-path="url(#cb6fc8dfb2)"><path fill="#ffffff" d="M 112.75 47.203125 L 111.414062 51.464844 L 111.414062 42.078125 L 104.9375 42.195312 L 104.9375 57.835938 L 104.230469 55.707031 L 99.511719 60.414062 L 16.574219 60.414062 L 16.574219 64.066406 L 108.816406 64.066406 L 132.753906 40.183594 L 138.484375 45.898438 L 144.964844 39.429688 L 132.753906 27.246094 L 112.75 47.203125 " fill-opacity="1" fill-rule="nonzero"/></g><g clip-path="url(#116657da6f)"><path fill="#ffffff" d="M 275.8125 60.414062 L 271.097656 55.707031 L 270.382812 57.835938 L 270.382812 42.195312 L 263.910156 42.078125 L 263.910156 51.464844 L 262.574219 47.203125 L 242.570312 27.246094 L 230.359375 39.429688 L 236.84375 45.898438 L 242.570312 40.183594 L 266.507812 64.066406 L 358.75 64.066406 L 358.75 60.414062 L 275.8125 60.414062 " fill-opacity="1" fill-rule="nonzero"/></g></svg>